<svg width="16" height="16" viewBox="0 0 16 16" fill="none" xmlns="http://www.w3.org/2000/svg">
<path d="M9.66658 2.66675H6.33325L4.66659 4.66675H2.66659C2.31296 4.66675 1.97382 4.80722 1.72378 5.05727C1.47373 5.30732 1.33325 5.64646 1.33325 6.00008V12.0001C1.33325 12.3537 1.47373 12.6928 1.72378 12.9429C1.97382 13.1929 2.31296 13.3334 2.66659 13.3334H13.3333C13.6869 13.3334 14.026 13.1929 14.2761 12.9429C14.5261 12.6928 14.6666 12.3537 14.6666 12.0001V6.00008C14.6666 5.64646 14.5261 5.30732 14.2761 5.05727C14.026 4.80722 13.6869 4.66675 13.3333 4.66675H11.3333L9.66658 2.66675Z" stroke="#18181B" stroke-linecap="round" stroke-linejoin="round"/>
<path d="M7.99992 10.6667C9.10449 10.6667 9.99992 9.77132 9.99992 8.66675C9.99992 7.56218 9.10449 6.66675 7.99992 6.66675C6.89535 6.66675 5.99992 7.56218 5.99992 8.66675C5.99992 9.77132 6.89535 10.6667 7.99992 10.6667Z" stroke="#18181B" stroke-linecap="round" stroke-linejoin="round"/>
</svg>
